<svg version="1.2" xmlns="http://www.w3.org/2000/svg" viewBox="0 0 16 16" width="1600" height="1600">
	<title>file-earmark-person-fill-svg</title>
	<style>
		.s0 { fill: #ffffff } 
	</style>
	<path id="Layer" fill-rule="evenodd" class="s0" d="m9.5 0q0.1 0 0.2 0.1 0.1 0 0.1 0.1 0.1 0 0.2 0.1l3.7 3.7q0.1 0.1 0.1 0.2 0.1 0 0.1 0.1 0.1 0.1 0.1 0.2 0 0.1 0 0.2v9.3q0 0.4-0.2 0.8-0.1 0.3-0.4 0.6-0.3 0.3-0.6 0.4-0.4 0.2-0.8 0.2h-8q-0.4 0-0.8-0.2-0.3-0.1-0.6-0.4-0.3-0.3-0.4-0.6-0.2-0.4-0.2-0.8v-12q0-0.4 0.2-0.8 0.1-0.3 0.4-0.6 0.3-0.3 0.6-0.4 0.4-0.2 0.8-0.2h5.3q0.1 0 0.2 0zm0.1 3.9q0.1 0.2 0.2 0.3 0.1 0.1 0.3 0.2 0.2 0.1 0.4 0.1h2l-3-3v2q0 0.2 0.1 0.4zm0.5 2c-0.5-0.6-1.3-0.9-2.1-0.9-0.8 0-1.6 0.3-2.1 0.9-0.6 0.5-0.9 1.3-0.9 2.1 0 0.8 0.3 1.6 0.9 2.1 0.5 0.6 1.3 0.9 2.1 0.9 0.8 0 1.6-0.3 2.1-0.9 0.6-0.5 0.9-1.3 0.9-2.1 0-0.8-0.3-1.6-0.9-2.1zm-2.1 6.1c-4 0-5 1.8-5 1.8v0.2q0 0.2 0.1 0.4 0.1 0.2 0.2 0.3 0.1 0.1 0.3 0.2 0.2 0.1 0.4 0.1h8q0.2 0 0.4-0.1 0.2-0.1 0.3-0.2 0.1-0.1 0.2-0.3 0.1-0.2 0.1-0.4v-0.2c0 0-1-1.8-5-1.8z"/>
</svg>