<svg version="1.2" xmlns="http://www.w3.org/2000/svg" viewBox="0 0 16 16" width="1600" height="1600">
	<title>box-fill-svg</title>
	<style>
		.s0 { fill: #ffffff } 
	</style>
	<path id="Layer" fill-rule="evenodd" class="s0" d="m15.5 3q0.1 0 0.2 0.1 0.1 0.1 0.2 0.1 0 0.1 0.1 0.2 0 0.2 0 0.3v8.6q0 0.1 0 0.3-0.1 0.1-0.1 0.2-0.1 0-0.2 0.1-0.1 0.1-0.2 0.1l-7.2 2.9q-0.1 0.1-0.2 0.1 0 0-0.1 0-0.1 0-0.1 0-0.1 0-0.2-0.1l-7.2-2.9q-0.1 0-0.2-0.1-0.1-0.1-0.2-0.1 0-0.1-0.1-0.2 0-0.2 0-0.3v-8.6q0-0.1 0-0.3 0.1-0.1 0.1-0.2 0.1 0 0.2-0.1 0.1-0.1 0.2-0.1l6.9-2.8 0.3-0.1q0.1-0.1 0.2-0.1 0 0 0.1 0 0.1 0 0.1 0 0.1 0 0.2 0.1l0.3 0.1zm-1.4 0.5l-6.2 2.5-6.1-2.5-0.9 0.3v0.4l6.5 2.6v8l0.5 0.2 0.5-0.2v-7.9l6.5-2.6v-0.4c0 0-0.8-0.4-0.8-0.4z"/>
</svg>