<svg version="1.2" xmlns="http://www.w3.org/2000/svg" viewBox="0 0 16 16" width="1600" height="1600">
	<title>clipboard-check-fill-svg</title>
	<style>
		.s0 { fill: #000000 } 
		.s1 { fill: #ffffff } 
	</style>
	<path id="Layer" fill-rule="evenodd" class="s0" d="m9.5 0q0.3 0 0.6 0.1 0.2 0.1 0.5 0.3 0.2 0.3 0.3 0.5 0.1 0.3 0.1 0.6v1q0 0.3-0.1 0.6-0.1 0.2-0.3 0.5-0.3 0.2-0.5 0.3-0.3 0.1-0.6 0.1h-3q-0.3 0-0.6-0.1-0.2-0.1-0.5-0.3-0.2-0.3-0.3-0.5-0.1-0.3-0.1-0.6v-1q0-0.3 0.1-0.6 0.1-0.2 0.3-0.5 0.3-0.2 0.5-0.3 0.3-0.1 0.6-0.1zm-3 1q-0.1 0-0.2 0-0.1 0.1-0.2 0.1 0 0.1-0.1 0.2 0 0.1 0 0.2v1q0 0.1 0 0.2 0.1 0.1 0.1 0.2 0.1 0 0.2 0.1 0.1 0 0.2 0h3q0.1 0 0.2 0 0.1-0.1 0.2-0.1 0-0.1 0.1-0.2 0-0.1 0-0.2v-1q0-0.1 0-0.2-0.1-0.1-0.1-0.2-0.1 0-0.2-0.1-0.1 0-0.2 0z"/>
	<path id="Layer" fill-rule="evenodd" class="s1" d="m4 2.5q0 0.5 0.2 1 0.2 0.4 0.5 0.8 0.4 0.3 0.8 0.5 0.5 0.2 1 0.2h3q0.5 0 1-0.2 0.4-0.2 0.8-0.5 0.3-0.4 0.5-0.8 0.2-0.5 0.2-1v-1h1q0.4 0 0.8 0.2 0.3 0.1 0.6 0.4 0.3 0.3 0.4 0.6 0.2 0.4 0.2 0.8v10.5q0 0.4-0.2 0.8-0.1 0.3-0.4 0.6-0.3 0.3-0.6 0.4-0.4 0.2-0.8 0.2h-10q-0.4 0-0.8-0.2-0.3-0.1-0.6-0.4-0.3-0.3-0.4-0.6-0.2-0.4-0.2-0.8v-10.5q0-0.4 0.2-0.8 0.1-0.3 0.4-0.6 0.3-0.3 0.6-0.4 0.4-0.2 0.8-0.2h1zm7 6q0-0.2-0.1-0.4-0.2-0.1-0.4-0.1-0.2 0-0.4 0.1l-2.6 2.7-1.1-1.2q-0.2-0.1-0.4-0.1-0.2 0-0.4 0.1-0.1 0.2-0.1 0.4 0 0.2 0.1 0.4l1.5 1.5q0.1 0 0.2 0.1 0.1 0 0.2 0 0.1 0 0.2 0 0.1-0.1 0.2-0.1l3-3q0.1-0.2 0.1-0.4z"/>
</svg>