<svg version="1.2" xmlns="http://www.w3.org/2000/svg" viewBox="0 0 16 16" width="16" height="16">
	<title>arrow-left-right-svg</title>
	<style>
		.s0 { fill: #ffffff } 
	</style>
	<path id="Layer" fill-rule="evenodd" class="s0" d="m1 11.3q0.1-0.1 0.1-0.2 0.1 0 0.2-0.1 0.1 0 0.2 0h11.8l-3.2-3.1q-0.1-0.2-0.1-0.4 0-0.2 0.1-0.4 0.2-0.1 0.4-0.1 0.2 0 0.4 0.1l4 4q0 0.1 0.1 0.2 0 0.1 0 0.2 0 0.1 0 0.2-0.1 0.1-0.1 0.2l-4 4q-0.2 0.1-0.4 0.1-0.2 0-0.4-0.1-0.1-0.2-0.1-0.4 0-0.2 0.1-0.4l3.2-3.1h-11.8q-0.1 0-0.2 0-0.1-0.1-0.2-0.1 0-0.1-0.1-0.2 0-0.1 0-0.2 0-0.1 0-0.2zm14-6.8q0 0.1 0 0.2-0.1 0.1-0.1 0.2-0.1 0-0.2 0.1-0.1 0-0.2 0h-11.8l3.2 3.1q0.1 0.2 0.1 0.4 0 0.2-0.1 0.4-0.2 0.1-0.4 0.1-0.2 0-0.4-0.1l-4-4q0-0.1-0.1-0.2 0-0.1 0-0.2 0-0.1 0-0.2 0.1-0.1 0.1-0.2l4-4q0.2-0.1 0.4-0.1 0.2 0 0.4 0.1 0.1 0.2 0.1 0.4 0 0.2-0.1 0.4l-3.2 3.1h11.8q0.1 0 0.2 0 0.1 0.1 0.2 0.1 0 0.1 0.1 0.2 0 0.1 0 0.2z"/>
</svg>